<?xml version="1.0" encoding="utf-8"?>
<!-- Generator: Adobe Illustrator 16.0.0, SVG Export Plug-In . SVG Version: 6.00 Build 0)  -->
<!DOCTYPE svg PUBLIC "-//W3C//DTD SVG 1.1//EN" "http://www.w3.org/Graphics/SVG/1.1/DTD/svg11.dtd">
<svg version="1.1" id="Layer_1" xmlns="http://www.w3.org/2000/svg" xmlns:xlink="http://www.w3.org/1999/xlink" x="0px" y="0px"
	 width="321.574px" height="76.348px" viewBox="0 0 321.574 76.348" enable-background="new 0 0 321.574 76.348"
	 xml:space="preserve">
<g id="logo">
	<rect x="-33.472" y="-17.601" display="none" fill="#33353E" width="388.518" height="111.548"/>
	<g>
		<rect x="157.766" y="36.265" fill="#F05A29" width="34.282" height="40.083"/>
		<path fill="#F05A29" d="M174.773,50.333l3.464-0.046c0,0,1.046-16.976,1.576-22.52c0.451-4.725,1.321-11.425,2.414-14.467
			c1.092-3.04,3.695-6.406,3.695-6.406s2.688,0.777,3.577-1.759c0.89-2.54-1.648-4.402-1.648-4.402
			c-2.794-0.944-7.69,1.229-5.772,5.09c-3.015,2.506-5.116,19.976-5.421,21.74C176.167,30.426,174.773,50.333,174.773,50.333z"/>
		<path fill="#F05A29" d="M172.803,50.163l-3.461-0.157c0,0-0.512-17-0.87-22.555c-0.3-4.737-0.959-11.459-1.954-14.537
			c-0.998-3.075-3.494-6.519-3.494-6.519s-2.71,0.694-3.52-1.871s1.784-4.346,1.784-4.346c2.825-0.854,7.65,1.466,5.611,5.269
			c2.934,2.599,4.486,20.126,4.734,21.901C172.033,30.219,172.803,50.163,172.803,50.163z"/>
		<g>
			<path fill="#FFFFFF" d="M27.289,73.791h-6.591c-1.161,0-0.619-1.473-1.317-1.473c-0.854,0-2.637,1.473-5.427,1.473h-2.945
				c-6.436,0-10.932-4.42-10.932-10.387v-0.389c0-6.123,4.496-10.389,10.932-10.389h7.441c0.466,0,0.776-0.23,0.776-0.696v-0.155
				l-0.078-0.931c-0.311-3.179-2.404-5.193-5.582-5.193c-1.396,0-3.102,0.851-4.264,2.325c-1.084,1.396-1.395,2.557-2.016,2.557
				c-0.155,0-0.31-0.076-0.466-0.154l-6.356-3.332C0.155,46.89,0,46.658,0,46.501c0-0.619,1.086-3.1,3.722-5.658
				c2.326-2.248,5.658-3.333,9.845-3.333c8.761,0,14.498,5.426,14.498,13.644v21.861C28.064,73.559,27.831,73.791,27.289,73.791z
				 M11.009,60.07c-1.163,0-2.094,1.008-2.094,2.17v1.164c0,1.317,0.854,2.248,2.094,2.248h2.945c2.404,0,4.188-1.473,5.194-4.342
				c0,0,0-0.389,0.078-1.24H11.009z"/>
			<path fill="#FFFFFF" d="M59.772,40.146c2.87,2.093,4.575,5.426,4.575,6.355c0,0.234-0.155,0.467-0.466,0.621l-6.357,3.102
				c-0.154,0.078-0.309,0.078-0.386,0.078c-0.311,0-0.389-0.155-0.621-0.466c-1.628-2.403-2.48-4.419-5.659-4.419H48.61
				c-2.792,0-4.265,1.008-4.265,2.946c0,3.179,4.265,2.48,10.622,4.187c6.279,1.705,9.225,4.573,9.225,9.689
				c0,7.288-5.193,12.327-13.334,12.327H48.61c-4.342,0-7.675-1.24-10.079-3.799c-2.402-2.48-3.333-4.651-3.333-5.35
				c0-0.231,0.154-0.386,0.465-0.542l6.357-3.101c0.154-0.078,0.233-0.078,0.388-0.078c0.231,0,0.388,0.234,0.62,0.543
				c1.551,2.559,2.559,4.419,5.582,4.419h2.248c2.791,0,4.497-1.396,4.497-3.333c0-3.102-4.342-2.404-10.699-4.031
				c-6.202-1.551-9.07-4.496-9.07-9.769c0-7.054,5.35-12.015,13.024-12.015h2.248C54.502,37.511,57.37,38.362,59.772,40.146z"/>
			<path fill="#FFFFFF" d="M76.212,34.564c-2.869,0-5.195-2.325-5.195-5.193c0-2.87,2.326-5.195,5.195-5.195
				c2.79,0,5.193,2.403,5.193,5.195C81.405,32.162,79.002,34.564,76.212,34.564z M79.855,73.791h-7.287
				c-0.544,0-0.775-0.232-0.775-0.775V39.06c0-0.542,0.231-0.775,0.775-0.775h7.287c0.465,0,0.775,0.233,0.775,0.775v33.956
				C80.631,73.559,80.397,73.791,79.855,73.791z"/>
			<path fill="#FFFFFF" d="M115.348,73.791h-6.59c-1.162,0-0.62-1.473-1.318-1.473c-0.853,0-2.636,1.473-5.427,1.473h-2.945
				c-6.436,0-10.932-4.42-10.932-10.387v-0.389c0-6.123,4.496-10.389,10.932-10.389h7.442c0.465,0,0.775-0.23,0.775-0.696v-0.155
				l-0.077-0.931c-0.311-3.179-2.404-5.193-5.583-5.193c-1.396,0-3.101,0.851-4.263,2.325c-1.085,1.396-1.396,2.557-2.017,2.557
				c-0.154,0-0.31-0.076-0.465-0.154l-6.357-3.332c-0.309-0.156-0.465-0.389-0.465-0.545c0-0.619,1.086-3.1,3.723-5.658
				c2.325-2.248,5.658-3.333,9.844-3.333c8.761,0,14.498,5.426,14.498,13.644v21.861C116.123,73.559,115.89,73.791,115.348,73.791z
				 M99.067,60.07c-1.163,0-2.094,1.008-2.094,2.17v1.164c0,1.317,0.854,2.248,2.094,2.248h2.945c2.404,0,4.188-1.473,5.195-4.342
				c0,0,0-0.389,0.077-1.24H99.067z"/>
			<path fill="#FFFFFF" d="M152.87,73.791h-7.364c-0.542,0-0.775-0.232-0.775-0.775V51.93c0-3.101-2.325-5.505-5.504-5.505
				c-3.256,0-5.581,2.404-5.581,5.505v21.085c0,0.543-0.233,0.775-0.775,0.775h-7.287c-0.544,0-0.775-0.232-0.775-0.775V39.06
				c0-0.542,0.231-0.775,0.775-0.775h6.589c1.163,0,0.698,1.552,1.317,1.552c0.931,0,2.791-1.552,6.357-1.552
				c7.908,0,13.8,5.583,13.8,13.646v21.085C153.646,73.559,153.413,73.791,152.87,73.791z"/>
			<path fill="#FFFFFF" d="M189.698,65.263c0,0.854-1.164,2.947-3.799,5.737c-2.248,2.326-5.582,3.566-9.923,3.566
				c-8.761,0-14.498-5.504-14.498-13.722v-9.612c0-8.217,5.737-13.721,14.498-13.721c3.565,0,6.435,0.774,8.837,2.557
				c3.024,2.248,4.885,5.66,4.885,6.59c0,0.232-0.155,0.465-0.466,0.62l-6.744,3.335c-0.154,0.076-0.311,0.076-0.388,0.076
				c-0.465,0-0.62-0.465-1.085-1.317c-1.318-2.481-2.791-3.721-5.039-3.721c-3.257,0-5.582,2.479-5.582,5.581v9.612
				c0,3.101,2.325,5.583,5.582,5.583c2.248,0,3.644-1.241,4.962-3.723c0.465-0.93,0.774-1.473,1.162-1.473
				c0.154,0,0.233,0,0.388,0.078l6.744,3.334C189.543,64.798,189.698,65.032,189.698,65.263z"/>
			<path fill="#FFFFFF" d="M214.895,48.053c-1.007,0-2.636-1.552-4.807-1.552c-3.022,0-5.348,2.404-5.348,5.429v21.085
				c0,0.543-0.233,0.775-0.775,0.775h-7.287c-0.544,0-0.776-0.232-0.776-0.775V39.06c0-0.542,0.232-0.775,0.776-0.775h6.588
				c0.543,0,0.776,0.156,0.776,0.699v1.084c0,0.465,0.233,0.699,0.698,0.775l0.465-0.232c2.015-1.551,3.875-2.326,5.892-2.326
				c2.714,0,4.341,0.621,4.341,1.396v7.521C215.438,47.743,215.205,48.053,214.895,48.053z"/>
			<path fill="#FFFFFF" d="M247.377,73.791h-6.588c-1.087,0-0.621-1.549-1.318-1.549c-0.931,0-2.79,1.549-6.279,1.549
				c-8.063,0-13.877-5.581-13.877-13.721V39.06c0-0.542,0.233-0.775,0.775-0.775h7.364c0.465,0,0.775,0.233,0.775,0.775v21.01
				c0,3.179,2.325,5.582,5.504,5.582s5.583-2.482,5.583-5.582V39.06c0-0.542,0.231-0.775,0.774-0.775h7.286
				c0.466,0,0.776,0.233,0.776,0.775v33.956C248.153,73.559,247.921,73.791,247.377,73.791z"/>
			<path fill="#FFFFFF" d="M280.328,40.146c2.869,2.093,4.573,5.426,4.573,6.355c0,0.234-0.154,0.467-0.465,0.621l-6.356,3.102
				c-0.155,0.078-0.31,0.078-0.387,0.078c-0.311,0-0.388-0.155-0.621-0.466c-1.627-2.403-2.479-4.419-5.658-4.419h-2.248
				c-2.792,0-4.265,1.008-4.265,2.946c0,3.179,4.265,2.48,10.621,4.187c6.279,1.705,9.225,4.573,9.225,9.689
				c0,7.288-5.193,12.327-13.333,12.327h-2.248c-4.342,0-7.675-1.24-10.079-3.799c-2.403-2.48-3.333-4.651-3.333-5.35
				c0-0.231,0.154-0.386,0.465-0.542l6.356-3.101c0.155-0.078,0.233-0.078,0.389-0.078c0.231,0,0.388,0.234,0.619,0.543
				c1.552,2.559,2.559,4.419,5.583,4.419h2.248c2.79,0,4.496-1.396,4.496-3.333c0-3.102-4.342-2.404-10.698-4.031
				c-6.202-1.551-9.07-4.496-9.07-9.769c0-7.054,5.35-12.015,13.024-12.015h2.248C275.058,37.511,277.925,38.362,280.328,40.146z"/>
			<path fill="#FFFFFF" d="M320.799,73.791h-7.364c-0.542,0-0.775-0.232-0.775-0.775V51.93c0-3.101-2.326-5.505-5.504-5.505
				c-3.256,0-5.581,2.404-5.581,5.505v21.085c0,0.543-0.233,0.775-0.776,0.775h-7.286c-0.544,0-0.776-0.232-0.776-0.775v-47.29
				c0-0.542,0.232-0.774,0.776-0.774h7.286c0.466,0,0.776,0.232,0.776,0.774v13.258c0,0.542,0.231,0.853,0.542,0.853
				c0.931,0,2.868-1.552,6.202-1.552c7.287,0,13.256,5.737,13.256,13.646v21.085C321.574,73.559,321.341,73.791,320.799,73.791z"/>
		</g>
	</g>
</g>
</svg>
